<svg xmlns="http://www.w3.org/2000/svg" fill="none" viewBox="0 0 142 48" height="48" width="142">
<g clip-path="url(#clip0_659_1281)">
<path fill="#276EF1" d="M15.1778 21.6375C14.1904 21.6375 13.4752 21.5698 12.9922 21.4293C12.2681 21.2188 12.1165 20.8424 12.1165 20.5635C12.1165 20.1001 12.4486 19.7586 13.1031 19.5481C13.7547 19.3384 13.9271 19.1859 13.9707 19.1301C14.0158 19.0758 14.0942 18.9516 14.1778 18.6399C14.2488 18.3729 14.3598 17.7846 14.5062 16.8927C14.6889 15.809 14.8383 14.7944 14.9507 13.8773C15.0898 12.74 15.1193 12.3748 15.1193 12.2684C15.1193 12.1851 15.1193 12.0125 14.7458 11.9091C14.5018 11.8415 13.8457 11.7604 12.1091 11.7604H8.516C7.42506 11.7604 6.70171 11.8043 6.36666 11.8905C5.97244 11.9924 5.91771 12.1628 5.89996 12.2193C5.86593 12.322 5.80824 12.5503 5.71875 13.0725C5.64627 13.4957 5.57452 13.9993 5.50426 14.5698C5.36373 15.6297 5.25205 16.5483 5.17069 17.3018C5.06862 18.2427 5.04791 18.5975 5.04791 18.7299C5.04791 18.93 5.08415 19.087 5.15442 19.1948C5.2269 19.3057 5.34524 19.3986 5.50722 19.4738C5.57896 19.5057 5.68547 19.5467 5.82599 19.5965C6.36444 19.7996 6.6344 20.0889 6.6344 20.4578C6.6344 20.774 6.46946 21.1972 5.68399 21.4174C5.15294 21.5661 4.29498 21.6383 3.06203 21.6383C2.07463 21.6383 1.35942 21.5706 0.876445 21.43C0.152355 21.2195 0.000732422 20.8431 0.000732422 20.5642C0.000732422 20.3329 0.068038 20.1343 0.20117 19.9751C0.324687 19.8271 0.508853 19.7088 0.764762 19.6121C0.856475 19.5749 0.985909 19.5333 1.15454 19.4864C1.60645 19.3622 1.87567 19.1837 1.95777 18.9561C2.09164 18.5864 2.28616 17.6306 2.53542 16.1154C2.78689 14.5899 3.0465 12.7653 3.30758 10.6923C3.50654 9.13396 3.67 7.6731 3.79203 6.34911C3.91333 5.03702 3.97472 4.24708 3.97472 4.00013C3.97472 3.72641 3.92443 3.6074 3.8941 3.56128C3.86156 3.51145 3.77946 3.43855 3.57459 3.37533L3.55905 3.37087L3.54426 3.36417C3.47622 3.33367 3.37267 3.29797 3.23658 3.2578C2.67964 3.07557 2.40155 2.81151 2.40155 2.47159C2.40155 1.99629 2.75508 1.64967 3.45255 1.4414C4.05534 1.26066 4.92366 1.17289 6.10557 1.17289C7.04045 1.17289 7.70315 1.2376 8.13213 1.36925C8.78226 1.57083 8.91835 1.94348 8.91835 2.22092C8.91835 2.66126 8.60105 3.00193 7.97533 3.23252C7.3792 3.45268 7.18912 3.6379 7.12921 3.72864C7.1122 3.7517 7.05968 3.82534 6.99016 4.12733C6.93469 4.36684 6.84963 4.8399 6.73795 5.53389C6.59076 6.43167 6.46946 7.23797 6.37849 7.9327C6.26681 8.78437 6.24314 9.07594 6.24314 9.16966C6.24314 9.25446 6.24314 9.43 6.62183 9.5438C6.86442 9.6167 7.51529 9.70372 9.23935 9.70372H10.6165C12.6594 9.70372 14.0195 9.65984 14.6593 9.5743C15.4588 9.46719 15.5431 9.2909 15.5439 9.28867C15.5809 9.17636 15.6223 8.99858 15.6637 8.76577C15.7066 8.52552 15.7621 8.15361 15.8323 7.62922C15.927 6.86234 16.0039 6.12894 16.0601 5.45355C16.1164 4.78561 16.1445 4.36237 16.1445 4.19725V3.94658C16.1445 3.72715 16.106 3.63641 16.089 3.6074C16.0542 3.54789 15.9825 3.48764 15.8804 3.43335C15.8116 3.39318 15.6852 3.33516 15.4182 3.25557C14.8472 3.08673 14.5572 2.82193 14.5572 2.46936C14.5572 1.9948 14.9085 1.64818 15.6008 1.43917C16.1999 1.25842 17.0527 1.17065 18.2087 1.17065C19.2146 1.17065 19.9136 1.23462 20.3455 1.36702C21.0016 1.56785 21.1391 1.95538 21.1391 2.24547C21.1391 2.46936 21.0777 2.65457 20.9564 2.79664C20.8433 2.92978 20.6391 3.04507 20.2937 3.17152C19.7509 3.36715 19.5304 3.49136 19.4417 3.56054C19.3322 3.64533 19.2612 3.74203 19.225 3.85658C19.168 4.04104 19.0512 4.56395 18.8211 6.00026C18.6355 7.15987 18.3863 8.90784 18.0815 11.1958C17.8301 13.0531 17.6163 14.7371 17.4462 16.2025C17.2361 18.0099 17.1925 18.5745 17.1925 18.7292C17.1925 18.9345 17.2265 19.0974 17.2938 19.2127C17.356 19.3198 17.4617 19.4038 17.6178 19.4686C17.7028 19.5028 17.8212 19.5511 17.9706 19.6129C18.5024 19.7981 18.7797 20.0837 18.7797 20.4563C18.7797 20.7725 18.6133 21.1964 17.8219 21.4159C17.2864 21.5646 16.4226 21.6368 15.1807 21.6368L15.1778 21.6375Z"></path>
<path fill="#276EF1" d="M30.8303 21.8353C30.2023 21.8353 29.5722 21.2373 28.9036 20.007C28.8954 19.9922 28.8873 19.9773 28.8799 19.9631C28.2934 20.5255 27.6669 20.9524 27.0161 21.2328C26.3127 21.5363 25.5272 21.6895 24.6811 21.6895C23.3246 21.6895 22.2203 21.3109 21.3994 20.5649C20.571 19.8114 20.1501 18.7901 20.1501 17.5294C20.1501 16.041 20.7041 14.8598 21.7958 14.0178C22.866 13.1937 24.3704 12.7756 26.2668 12.7756C26.7313 12.7756 27.2069 12.7913 27.681 12.8225C28.0611 12.8478 28.4487 12.8798 28.8363 12.9192C28.8363 12.9051 28.8377 12.8909 28.8377 12.8768C28.8414 12.7652 28.8444 12.5971 28.8444 12.3732C28.8444 11.0924 28.6499 10.1715 28.266 9.63673C27.8962 9.12201 27.2986 8.87209 26.4384 8.87209C25.9998 8.87209 25.6026 8.95614 25.2558 9.12275C24.9067 9.29011 24.5746 9.55565 24.2684 9.91269C24.2055 9.99153 24.1019 10.1262 23.9644 10.3084C23.4821 10.9979 22.9622 11.3512 22.426 11.3512C22.082 11.3512 21.7973 11.2404 21.5798 11.0217C21.3624 10.803 21.2522 10.5122 21.2522 10.1581C21.2522 9.40615 21.8032 8.71068 22.8897 8.09033C23.9274 7.49826 25.13 7.19775 26.4643 7.19775C28.1499 7.19775 29.4213 7.63363 30.2445 8.49348C31.064 9.35036 31.4797 10.6825 31.4797 12.4521C31.4797 12.9482 31.4708 13.6109 31.4538 14.4224C31.4368 15.2302 31.4279 15.8052 31.4279 16.131C31.4279 17.7071 31.4686 18.7173 31.5477 19.133C31.615 19.4864 31.709 19.5667 31.723 19.5667C31.7696 19.5667 31.8547 19.56 31.9981 19.5273C32.1919 19.4834 32.2644 19.4745 32.3132 19.4745C32.5647 19.4745 32.7148 19.5853 32.7962 19.6775C32.9064 19.8032 32.9619 19.9631 32.9619 20.1528C32.9619 20.5463 32.7245 20.9331 32.2555 21.302C31.8073 21.6553 31.3281 21.8346 30.831 21.8346L30.8303 21.8353ZM26.7261 14.4239C25.4658 14.4239 24.5043 14.6798 23.8704 15.1834C23.2462 15.6788 22.943 16.3861 22.943 17.3449C22.943 18.1393 23.1552 18.7388 23.5923 19.1784C24.0295 19.6173 24.6256 19.8315 25.4155 19.8315C26.4436 19.8315 27.2498 19.5228 27.8807 18.8883C28.5116 18.2539 28.8185 17.4297 28.8185 16.369V14.6069C28.4502 14.5482 28.1033 14.5043 27.7845 14.4753C27.4044 14.441 27.0486 14.4239 26.7269 14.4239H26.7261Z"></path>
<path fill="#276EF1" d="M40.9632 21.8614C38.9381 21.8614 37.2673 21.186 35.9966 19.8531C34.7289 18.5239 34.0862 16.7796 34.0862 14.6679C34.0862 12.5562 34.7659 10.7123 36.1068 9.28643C37.4515 7.85681 39.1563 7.13159 41.1732 7.13159C42.637 7.13159 43.9246 7.49755 45 8.21905C46.1102 8.96361 46.6738 9.8071 46.6738 10.725C46.6738 11.1631 46.537 11.5328 46.2678 11.8251C45.9934 12.1226 45.642 12.2736 45.2249 12.2736C44.8617 12.2736 44.5415 12.1531 44.2737 11.9158C44.0252 11.6964 43.7686 11.3014 43.4875 10.7086C43.185 10.0749 42.8455 9.61073 42.4794 9.33032C42.1222 9.05659 41.6947 8.92419 41.1732 8.92419C39.8648 8.92419 38.8693 9.36825 38.1297 10.2817C37.3864 11.1995 37.0099 12.502 37.0099 14.1532C37.0099 15.8045 37.4433 17.1255 38.2983 18.1609C39.1526 19.1956 40.2088 19.6984 41.5275 19.6984C41.9424 19.6984 42.3611 19.6277 42.773 19.4886C43.188 19.348 43.5992 19.1338 43.9949 18.8519C44.202 18.7098 44.4934 18.448 44.864 18.0709C45.3114 17.6157 45.6679 17.4037 45.986 17.4037C46.2041 17.4037 46.3965 17.4811 46.5429 17.6276C46.6908 17.7764 46.7663 17.9742 46.7663 18.2145C46.7663 18.4547 46.6886 18.7151 46.5296 19.0044C46.3831 19.2699 46.1723 19.5466 45.9039 19.8263C45.2796 20.4913 44.5348 21.003 43.6939 21.3459C42.8566 21.6873 41.938 21.8599 40.9639 21.8599L40.9632 21.8614Z"></path>
<path fill="#276EF1" d="M57.0752 21.8086C56.8104 21.8086 56.5612 21.6933 56.3348 21.4657C56.1418 21.2716 55.9007 20.9212 55.5974 20.3946L53.6004 16.8503C53.582 16.8258 53.5642 16.7953 53.5435 16.7536C53.0516 15.8863 52.8009 15.8611 52.7743 15.8611C52.4089 15.8611 51.298 15.8611 51.1545 18.5857C51.1368 18.936 51.1146 19.4172 51.1146 19.4172L51.1116 19.4329C51.105 19.4738 51.102 19.5251 51.102 19.5868C51.0465 20.5188 50.5806 21.6108 48.6701 21.6108C48.4726 21.6108 48.3262 21.5691 48.2234 21.4828C48.1428 21.4159 48.0474 21.2865 48.0474 21.0507C48.0474 21.0045 48.0474 20.9198 48.1901 20.1752L48.4327 18.9033C48.6576 17.6351 48.9704 15.4787 49.3617 12.496C49.4334 11.9121 49.4896 11.4867 49.5333 11.1981C49.7921 9.13769 49.9933 7.48344 50.1287 6.28962C50.2618 5.10843 50.3298 4.38619 50.3298 4.14445C50.3298 3.83279 50.2892 3.75246 50.2869 3.74874C50.2869 3.74874 50.2522 3.7056 50.1006 3.66766C50.0288 3.65427 49.9023 3.6327 49.733 3.60667C48.9371 3.49212 48.77 3.11129 48.77 2.81227C48.77 2.61888 48.8373 2.33697 49.1568 2.09077C49.3668 1.92862 49.764 1.73671 50.372 1.50464C50.838 1.34249 51.2876 1.20934 51.7159 1.10595C52.1604 0.998845 52.4903 0.946777 52.7225 0.946777C52.8401 0.946777 53.0605 0.987687 53.2129 1.26364C53.3016 1.42431 53.3453 1.63332 53.3453 1.90258C53.3453 2.04837 53.3379 2.1711 53.3231 2.27747C53.3098 2.37342 53.2935 2.4716 53.275 2.57127L52.1841 9.69407C52.798 9.04323 53.4422 8.5114 54.1049 8.10676C55.0087 7.55559 55.8896 7.27666 56.7224 7.27666C57.5552 7.27666 58.1824 7.53625 58.6617 8.04726C59.1365 8.55454 59.3776 9.23811 59.3776 10.0786C59.3776 11.1802 58.9775 12.1844 58.1868 13.0621C57.4738 13.855 56.5049 14.4709 55.3045 14.8963C55.6884 15.5345 56.1462 16.3252 56.6669 17.2512C57.8318 19.3458 58.2179 19.444 58.2578 19.4485C58.3207 19.4485 58.4501 19.4321 58.6935 19.3555C58.9494 19.2752 59.1269 19.238 59.2526 19.238C59.5063 19.238 59.6639 19.3421 59.7504 19.4291C59.8754 19.5548 59.9405 19.7237 59.9405 19.9171C59.9405 20.2979 59.5966 20.6929 58.8577 21.1607C58.1691 21.5966 57.5863 21.8094 57.0752 21.8094V21.8086ZM55.6462 9.39951C54.7927 9.39951 53.9621 9.90829 53.1752 10.9124C52.4333 11.8593 51.9296 13.0427 51.6745 14.4352C53.2735 14.0551 54.5427 13.5322 55.4502 12.8791C56.3984 12.197 56.8592 11.4584 56.8592 10.6194C56.8592 10.2155 56.7586 9.91796 56.5508 9.70894C56.343 9.49993 56.0471 9.39877 55.6455 9.39877L55.6462 9.39951Z"></path>
<path fill="#276EF1" d="M68.2117 21.6375C67.2243 21.6375 66.5091 21.5698 66.0261 21.4292C65.302 21.2187 65.1504 20.8424 65.1504 20.5634C65.1504 20.3321 65.2177 20.1335 65.3508 19.9743C65.4743 19.8263 65.6585 19.708 65.9144 19.6113C66.0061 19.5741 66.1356 19.5325 66.3042 19.4856C66.7561 19.3614 67.0253 19.1829 67.1074 18.9553C67.2413 18.5856 67.4358 17.6298 67.6851 16.1147C67.9365 14.5891 68.1962 12.7645 68.4572 10.6915C68.6562 9.13319 68.8197 7.67233 68.9417 6.34834C69.063 5.03625 69.1244 4.24631 69.1244 3.99936C69.1244 3.72564 69.0741 3.60663 69.0438 3.56051C69.0112 3.51068 68.9291 3.43778 68.7242 3.37456L68.7087 3.3701L68.6939 3.3634C68.6259 3.33365 68.5223 3.2972 68.3862 3.25704C67.8293 3.0748 67.5512 2.81075 67.5512 2.47082C67.5512 2.18594 67.6725 1.79246 68.2494 1.53733C68.6458 1.36253 69.1872 1.27699 69.9047 1.27699H78.4281C79.3452 1.27699 80.1078 1.19964 80.695 1.0479C80.8008 1.02187 80.8496 1.01294 80.8932 1.01294C81.3052 1.01294 81.6351 1.35063 81.8732 2.0156C82.0796 2.59206 82.1846 3.34406 82.1846 4.25003C82.1846 4.72756 82.1158 5.07195 81.9738 5.30179C81.8599 5.48625 81.6329 5.70642 81.195 5.70642C80.7801 5.70642 80.4029 5.38882 80.0427 4.73649C79.8984 4.48061 79.7742 4.27309 79.6736 4.12209C79.5146 3.88184 79.2454 3.69068 78.8733 3.55307C78.4769 3.40654 78.0006 3.33216 77.4577 3.33216H74.1531C73.1376 3.33216 72.7759 3.4415 72.6502 3.50621C72.4601 3.60514 72.2974 3.86994 72.1812 4.2716C72.1383 4.39656 72.0725 4.64277 71.9786 5.18575C71.9002 5.63576 71.8173 6.19288 71.7308 6.84298C71.5821 7.92374 71.4823 8.67425 71.4298 9.096C71.3632 9.63229 71.3529 9.79221 71.3529 9.84056C71.3529 9.9566 71.3743 10.0399 71.4106 10.0644C71.4224 10.0719 71.5407 10.1381 72.0814 10.1381H74.1531C75.0524 10.1381 75.4385 10.0563 75.6042 9.98709C75.8291 9.89411 76.0088 9.73494 76.1545 9.49989C76.1878 9.44634 76.2913 9.23137 76.5302 8.40053C76.7499 7.63663 77.1153 7.24985 77.6145 7.24985C78.0132 7.24985 78.218 7.4596 78.3186 7.63514C78.4399 7.84639 78.4991 8.16251 78.4991 8.60136C78.4991 9.51551 78.4273 10.4542 78.2861 11.3914C78.1448 12.3286 77.934 13.2324 77.6596 14.0788C77.5405 14.4478 77.4052 14.7051 77.2469 14.865C77.0687 15.0443 76.8305 15.135 76.5391 15.135C76.1693 15.135 75.9696 14.9461 75.8675 14.7877C75.7418 14.5921 75.6804 14.3243 75.6804 13.9687V13.1647C75.6804 12.8329 75.5938 12.5986 75.4163 12.4484C75.2263 12.2892 74.9119 12.2081 74.4807 12.2081H71.6487C71.2049 12.2081 71.094 12.2743 71.0829 12.2818C71.074 12.2877 70.9934 12.3487 70.9268 12.644C70.9069 12.7243 70.8336 13.1721 70.5511 15.3366L70.4986 15.7569C70.3936 16.5736 70.313 17.2319 70.256 17.7317C70.1872 18.3394 70.1724 18.5886 70.1724 18.6905C70.1724 18.9166 70.2146 19.084 70.2967 19.1874C70.3581 19.2647 70.4993 19.3793 70.8277 19.4894L70.8455 19.4953L70.8625 19.5035C70.8847 19.5146 70.9409 19.5392 71.0703 19.5794C71.6923 19.7772 72.0074 20.0725 72.0074 20.4571C72.0074 20.9108 71.662 21.2314 70.9808 21.4106C70.4024 21.5631 69.4964 21.6368 68.2117 21.6368V21.6375Z"></path>
<path fill="#276EF1" d="M87.1251 21.8613C85.1533 21.8613 83.478 21.1659 82.1467 19.795C80.8169 18.4264 80.1431 16.7096 80.1431 14.6939C80.1431 12.5383 80.8501 10.716 82.2451 9.27668C83.6422 7.83591 85.4077 7.10474 87.492 7.10474C89.5762 7.10474 91.1427 7.77789 92.4311 9.10486C93.7174 10.4303 94.3697 12.1374 94.3697 14.1792C94.3697 16.3601 93.67 18.204 92.2891 19.6604C90.9053 21.1205 89.1679 21.8606 87.1251 21.8606V21.8613ZM86.8758 8.92486C85.745 8.92486 84.8471 9.36594 84.1289 10.2734C83.4063 11.1868 83.0402 12.4126 83.0402 13.9166C83.0402 15.7137 83.4684 17.2154 84.3131 18.3795C85.1503 19.5339 86.1562 20.0948 87.3877 20.0948C88.6191 20.0948 89.6132 19.6537 90.3314 18.7462C91.054 17.8328 91.4201 16.5356 91.4201 14.8918C91.4201 13.2479 90.9756 11.7335 90.0999 10.6007C89.2278 9.47305 88.1731 8.92486 86.8758 8.92486Z"></path>
<path fill="#276EF1" d="M98.6744 21.6115C97.6944 21.6115 97.0021 21.5453 96.5568 21.4084C95.8853 21.2024 95.744 20.8208 95.744 20.5366C95.744 20.2897 95.8719 19.955 96.4836 19.7646C96.954 19.618 97.0465 19.537 97.0553 19.528C97.0908 19.496 97.2047 19.3711 97.2735 18.8274C97.3283 18.3915 97.3564 17.6127 97.3564 16.5141C97.3564 15.0131 97.3364 13.7493 97.2979 12.76C97.2595 11.7804 97.1966 11.0455 97.1115 10.5755C97.0516 10.1545 96.9621 10.0035 96.9141 9.9499C96.8971 9.93056 96.7868 9.83461 96.3135 9.83461H96.0642C95.8557 9.83461 95.6626 9.75353 95.5043 9.60105C95.3431 9.44559 95.2581 9.24625 95.2581 9.02385C95.2581 8.78508 95.3498 8.56863 95.5302 8.38119C95.6856 8.21978 95.9466 8.05317 96.329 7.87019C96.7743 7.63291 97.2188 7.43431 97.6404 7.28555C98.0901 7.12712 98.3933 7.05273 98.5945 7.05273C98.843 7.05273 99.1847 7.18365 99.3992 7.80845C99.5153 8.14763 99.6129 8.68095 99.6943 9.42923C100.186 8.74417 100.708 8.19673 101.248 7.7973C101.918 7.3034 102.586 7.05273 103.236 7.05273C103.798 7.05273 104.261 7.23497 104.614 7.59498C104.966 7.9535 105.144 8.42582 105.144 8.99782C105.144 9.50807 104.98 9.93726 104.655 10.2735C104.329 10.6119 103.913 10.7837 103.42 10.7837C102.974 10.7837 102.597 10.6387 102.302 10.3523C102.081 10.1381 101.924 9.86139 101.83 9.52593C101.123 9.80263 100.62 10.2035 100.33 10.719C99.9916 11.3208 99.82 12.6894 99.82 14.7862C99.82 16.3921 99.8415 17.5651 99.8851 18.271C99.9413 19.1941 100.028 19.3756 100.045 19.4023C100.101 19.4879 100.26 19.6255 100.784 19.7013C100.94 19.7184 101.072 19.737 101.173 19.7556C101.407 19.7988 101.6 19.8784 101.747 19.9922C101.928 20.132 102.023 20.3202 102.023 20.5359C102.023 20.9554 101.704 21.25 101.074 21.4106C100.549 21.5453 99.7638 21.61 98.6736 21.61L98.6744 21.6115Z"></path>
<path fill="#276EF1" d="M4.16775 47.5908C3.02947 47.5908 2.22772 47.5157 1.71738 47.3617C0.962967 47.1341 0.804688 46.7049 0.804688 46.3843C0.804688 46.0013 1.12051 45.7023 1.74253 45.4947C2.35567 45.2909 2.46662 45.1957 2.47771 45.186C2.50212 45.1518 2.63673 44.8967 2.71291 43.4165C2.76912 42.3201 2.79797 40.2798 2.79797 37.3514C2.79797 34.423 2.76912 32.4266 2.71291 31.3391C2.63673 29.8701 2.50212 29.6172 2.47549 29.5808C2.46736 29.5726 2.35567 29.4774 1.74253 29.2736C1.51103 29.1962 0.804688 28.9619 0.804688 28.3973C0.804688 28.105 0.928204 27.8521 1.16192 27.6654C1.36976 27.4996 1.65821 27.3895 2.01989 27.3389L2.03838 27.3359H2.17521C4.00947 27.231 6.23795 27.1775 8.78373 27.1775C10.865 27.1775 12.5099 27.6543 13.6726 28.5952C14.8531 29.551 15.4514 30.9085 15.4514 32.6297C15.4514 34.5599 14.7118 36.0668 13.2533 37.1097C11.8236 38.1317 9.76816 38.6494 7.14473 38.6494C6.98867 38.6494 6.80006 38.6405 6.58483 38.6219C6.38735 38.6055 6.2631 38.5966 6.21354 38.5966C5.76681 38.5966 5.68101 38.6836 5.68027 38.6843C5.6677 38.7074 5.59078 38.8896 5.59078 39.7897V40.0269C5.59078 41.763 5.61963 43.052 5.6751 43.8583C5.75128 44.9503 5.86 45.1533 5.88071 45.1831C5.88367 45.1846 5.99535 45.2865 6.61959 45.494C7.24236 45.7008 7.55817 45.9998 7.55817 46.3836C7.55817 46.6975 7.39916 47.1207 6.6403 47.3543C6.12405 47.5127 5.31564 47.5901 4.16849 47.5901L4.16775 47.5908ZM5.59004 36.7006C5.79566 36.7445 5.99683 36.7779 6.19061 36.7995C6.44948 36.8293 6.70021 36.8441 6.93467 36.8441C8.72826 36.8441 10.0788 36.5079 10.9486 35.8437C11.808 35.1884 12.2259 34.2192 12.2259 32.8811C12.2259 31.543 11.8709 30.637 11.1712 30.0256C10.4604 29.4045 9.34362 29.0898 7.85254 29.0898C6.5301 29.0898 6.1381 29.1486 6.02198 29.1836C5.83633 29.2401 5.7853 29.336 5.76237 29.4127C5.73944 29.5101 5.68767 29.9579 5.64255 31.682C5.60927 32.9629 5.59152 34.6506 5.59004 36.7013V36.7006Z"></path>
<path fill="#276EF1" d="M27.8978 47.8414C27.4903 47.8414 27.2832 47.6681 27.1804 47.5231C27.048 47.3364 26.9866 47.0411 26.9866 46.5955V45.4664C26.9334 45.523 26.8646 45.6063 26.7773 45.7268C26.5776 46.0094 26.4112 46.2214 26.2714 46.3724C25.8402 46.8611 25.3239 47.236 24.7426 47.4785C24.1657 47.7194 23.5022 47.8422 22.7708 47.8422C21.0622 47.8422 19.7893 47.2858 18.9876 46.1887C18.2051 45.1176 17.8079 43.418 17.8079 41.1367V38.8688C17.8079 37.605 17.7783 36.7571 17.7191 36.3495C17.6578 35.9277 17.5653 35.7916 17.5291 35.7529C17.481 35.7395 17.3331 35.7053 16.9011 35.6488C16.1327 35.5491 16.0054 35.0917 15.9988 34.8284C15.9988 34.5725 16.1112 34.3486 16.3346 34.1552C16.5187 33.9945 16.788 33.8383 17.157 33.6762C17.6319 33.4925 18.1023 33.3444 18.5653 33.2329C19.0453 33.1168 19.3833 33.0603 19.5985 33.0603C19.958 33.0603 20.2183 33.1659 20.3714 33.3742C20.5105 33.5631 20.5756 33.8592 20.5756 34.3062C20.5756 34.7532 20.5423 35.5573 20.4765 36.6567C20.4114 37.7456 20.3788 38.6181 20.3788 39.2518V40.0038C20.3788 41.2646 20.4069 42.1921 20.4624 42.7597C20.5171 43.3153 20.6111 43.7765 20.742 44.129C20.9158 44.6155 21.2094 44.9852 21.6384 45.2619C22.0689 45.5401 22.5866 45.6806 23.1783 45.6806C23.77 45.6806 24.3802 45.5289 24.9408 45.2306C25.5066 44.9294 26.0066 44.4957 26.426 43.9409C26.6205 43.6902 26.7581 43.3852 26.8365 43.0304C26.9193 42.6555 26.9615 42.0456 26.9615 41.217V38.8695C26.9615 37.6147 26.9319 36.7712 26.8727 36.3636C26.8121 35.9456 26.7196 35.7983 26.6782 35.7514C26.6279 35.7366 26.48 35.7023 26.0643 35.6421C25.3047 35.5335 25.1915 35.0805 25.1915 34.8209C25.1915 34.5777 25.2973 34.3538 25.5051 34.1559C25.6834 33.9871 25.9526 33.8294 26.3283 33.674C26.7884 33.4925 27.2595 33.3444 27.7321 33.2321C28.221 33.1161 28.5672 33.0603 28.7905 33.0603C29.133 33.0603 29.3822 33.1637 29.5316 33.3682C29.6655 33.552 29.7284 33.8502 29.7284 34.3062C29.7284 34.8693 29.6973 35.7485 29.6367 36.9185C29.576 38.0744 29.545 38.9662 29.545 39.568C29.545 41.5301 29.5694 42.933 29.6167 43.7385C29.6796 44.8044 29.7853 45.0432 29.8164 45.0908C29.8164 45.0908 29.9273 45.1808 30.4547 45.2544C31.272 45.369 31.394 45.822 31.394 46.0823C31.394 46.5152 30.9924 46.9027 30.13 47.3037C29.3593 47.6614 28.6086 47.8429 27.9 47.8429L27.8978 47.8414Z"></path>
<path fill="#276EF1" d="M37.1134 47.8416C35.6586 47.8416 34.4996 47.5024 33.6675 46.833C32.8177 46.1494 32.3865 45.1862 32.3865 43.9715C32.3865 43.584 32.5078 42.5813 32.7563 40.9055C32.9989 39.2699 33.1927 37.9027 33.3325 36.842C33.5492 35.0866 33.7215 33.5953 33.8428 32.4119C33.9633 31.2337 34.0247 30.4244 34.0247 30.0064C34.0247 29.8241 33.987 29.752 33.9707 29.7297C33.9611 29.7163 33.9301 29.6731 33.8139 29.6523C33.723 29.6345 33.6002 29.6129 33.4382 29.5869C32.6557 29.473 32.4908 29.0922 32.4908 28.7925C32.4908 28.5909 32.5669 28.2956 32.9301 28.0323C33.1705 27.8582 33.595 27.6611 34.2281 27.4305C34.5942 27.2959 34.9641 27.188 35.3257 27.1107C35.6926 27.0326 36.0336 26.9932 36.339 26.9932C36.6179 26.9932 36.8227 27.0534 36.9662 27.1769C37.072 27.2676 37.1977 27.4387 37.1977 27.7377C37.1977 27.8344 37.1763 28.0613 37.0099 28.9613C36.8893 29.6114 36.788 30.199 36.7096 30.707L35.9648 35.7531C36.0254 35.6929 36.0979 35.6185 36.1867 35.5277C36.5432 35.1603 36.9085 34.8248 37.2724 34.5303C37.8478 34.0512 38.4477 33.6823 39.0512 33.4354C39.6621 33.1862 40.276 33.0597 40.8766 33.0597C42.1369 33.0597 43.1739 33.5596 43.9579 34.5459C44.7278 35.5136 45.1183 36.7952 45.1183 38.3542C45.1183 39.5949 44.8831 40.8445 44.4186 42.0703C43.9542 43.2969 43.3055 44.3791 42.4919 45.2866C41.7383 46.1353 40.904 46.7802 40.0142 47.2027C39.1215 47.6266 38.1452 47.8416 37.1134 47.8416V47.8416ZM39.8537 35.3797C38.4469 35.3797 37.3124 36.1265 36.3856 37.6632C35.4456 39.2215 34.9692 41.2819 34.9692 43.7871C34.9692 44.4677 35.1904 44.992 35.6445 45.39C36.1031 45.7924 36.734 45.9962 37.5202 45.9962C38.1333 45.9962 38.6895 45.8512 39.174 45.5655C39.6666 45.2747 40.1392 44.8068 40.5778 44.1739C41.1014 43.4256 41.5149 42.562 41.807 41.6054C42.0992 40.6467 42.2479 39.673 42.2479 38.7105C42.2479 37.6498 42.0274 36.8145 41.5933 36.2277C41.171 35.6571 40.6022 35.3804 39.8544 35.3804L39.8537 35.3797Z"></path>
<path fill="#276EF1" d="M48.5059 47.5909C47.5356 47.5909 46.8455 47.5247 46.3958 47.3878C45.7176 47.1818 45.5756 46.8002 45.5756 46.5161C45.5756 46.1568 45.844 45.8905 46.3736 45.7246C46.8388 45.5789 46.9623 45.4465 46.9934 45.3966C47.0023 45.3795 47.0881 45.1757 47.1362 44.1373C47.1709 43.3742 47.1887 41.9029 47.1887 39.7652V37.4973C47.1887 34.0237 47.1532 31.8153 47.0844 30.9316C47.0052 29.9208 46.8692 29.6545 46.8226 29.592C46.7678 29.5764 46.614 29.5422 46.1998 29.4834C45.4276 29.3748 45.313 28.9218 45.313 28.6622C45.313 28.4153 45.4225 28.1921 45.6392 27.9987C45.8196 27.8373 46.0874 27.6804 46.4579 27.5175C46.9424 27.3338 47.4135 27.1857 47.8721 27.0742C48.3484 26.9581 48.6886 26.9016 48.9127 26.9016C49.2633 26.9016 49.5192 27.0072 49.6723 27.2155C49.8114 27.4044 49.8765 27.7005 49.8765 28.1475C49.8765 28.2368 49.8676 28.5127 49.8498 28.9754C49.7803 31.5222 49.7455 34.133 49.7455 36.7326C49.7455 40.1616 49.7677 42.4675 49.8106 43.5862C49.8676 45.0626 49.9645 45.3475 49.9933 45.3996C50.0236 45.4479 50.1472 45.5803 50.6124 45.7261C51.1419 45.8927 51.4104 46.159 51.4104 46.5183C51.4104 46.8024 51.2692 47.184 50.5976 47.39C50.1523 47.5269 49.4682 47.5931 48.5067 47.5931L48.5059 47.5909Z"></path>
<path fill="#276EF1" d="M55.5433 47.5909C54.581 47.5909 53.8969 47.5247 53.4523 47.3878C52.7808 47.1818 52.6395 46.8002 52.6395 46.5161C52.6395 46.2691 52.7675 45.9344 53.3791 45.744C53.8488 45.5982 53.956 45.5142 53.973 45.4993C53.9834 45.4896 54.0966 45.3669 54.169 44.7257C54.2245 44.2333 54.2526 43.3452 54.2526 42.0859C54.2526 39.9816 54.2267 38.4226 54.1742 37.4519C54.1032 36.1227 53.9804 35.8758 53.9568 35.8393C53.9568 35.8393 53.8532 35.7478 53.3296 35.6735C52.5241 35.5589 52.4036 35.1059 52.4036 34.8456C52.4036 34.5853 52.5079 34.3666 52.7046 34.1806C52.8747 34.02 53.1476 33.863 53.5396 33.6994C53.9886 33.5186 54.439 33.3706 54.8813 33.2583C55.3406 33.1422 55.6986 33.085 55.9767 33.085C56.3835 33.085 56.5913 33.2583 56.6934 33.4033C56.8258 33.5915 56.8872 33.8861 56.8872 34.3309C56.8872 34.4194 56.8827 34.676 56.8738 35.1015C56.8132 37.5174 56.7821 40.0047 56.7821 42.4943C56.7821 43.6732 56.808 44.4736 56.859 44.873C56.9219 45.3706 57.0188 45.4829 57.0373 45.5008C57.0521 45.5142 57.1593 45.5975 57.629 45.744C58.2407 45.9344 58.3686 46.2691 58.3686 46.5161C58.3686 46.7928 58.2296 47.1669 57.5654 47.3796C57.1238 47.5217 56.4626 47.5901 55.5433 47.5901V47.5909ZM55.4123 30.5002C54.953 30.5002 54.5573 30.3552 54.2371 30.0695C53.908 29.7757 53.7401 29.4038 53.7401 28.9642C53.7401 28.4711 53.9072 28.0501 54.2371 27.7131C54.5677 27.3754 54.9811 27.2036 55.4641 27.2036C55.9471 27.2036 56.3443 27.3531 56.652 27.6469C56.9641 27.9452 57.1223 28.3305 57.1223 28.7924C57.1223 29.2543 56.9545 29.6664 56.6238 29.9989C56.2932 30.3314 55.885 30.5002 55.4109 30.5002H55.4123Z"></path>
<path fill="#276EF1" d="M65.782 47.8416C63.757 47.8416 62.0854 47.1662 60.8155 45.8333C59.5478 44.5041 58.905 42.7599 58.905 40.6482C58.905 38.5365 59.5847 36.6926 60.9257 35.2667C62.2703 33.837 63.9751 33.1118 65.9921 33.1118C67.4558 33.1118 68.7435 33.4778 69.8189 34.1993C70.9291 34.9438 71.4927 35.7873 71.4927 36.7052C71.4927 37.1433 71.3558 37.513 71.0866 37.8053C70.8122 38.1028 70.4609 38.2538 70.0437 38.2538C69.6806 38.2538 69.3603 38.1333 69.0926 37.896C68.8448 37.6766 68.5874 37.2817 68.3064 36.6888C68.0031 36.0551 67.6636 35.591 67.2983 35.3105C66.9403 35.0368 66.5135 34.9044 65.9921 34.9044C64.6837 34.9044 63.6882 35.3485 62.9485 36.2619C62.2052 37.1798 61.8288 38.4822 61.8288 40.1334C61.8288 41.7847 62.2622 43.1065 63.1172 44.1411C63.9714 45.1758 65.0276 45.6786 66.3464 45.6786C66.7613 45.6786 67.1799 45.6079 67.5919 45.4688C68.0068 45.3283 68.4181 45.114 68.8137 44.8321C69.0208 44.6901 69.3123 44.4282 69.6828 44.0511C70.1303 43.5959 70.4868 43.3839 70.8048 43.3839C71.023 43.3839 71.2153 43.4613 71.3617 43.6078C71.5097 43.7573 71.5851 43.9544 71.5851 44.1947C71.5851 44.4349 71.5052 44.6997 71.3484 44.9846C71.202 45.2502 70.9919 45.5261 70.7227 45.8065C70.0985 46.4715 69.3537 46.984 68.5127 47.3262C67.6755 47.6676 66.7569 47.8401 65.7828 47.8401L65.782 47.8416Z"></path>
<path fill="#276EF1" d="M85.8078 48.0001C83.2325 48.0001 81.1608 47.1655 79.6505 45.5194C78.1461 43.8801 77.3828 41.633 77.3828 38.8415C77.3828 37.3598 77.6084 35.9369 78.0529 34.6143C78.4974 33.2896 79.1572 32.0727 80.0122 30.9979C81.0476 29.697 82.3213 28.6817 83.7983 27.9817C85.2746 27.2818 86.8907 26.927 88.6007 26.927C89.2811 26.927 90.0266 27.0155 90.8151 27.1903C91.8646 27.4231 92.065 27.441 92.1013 27.441C92.2011 27.441 92.3883 27.4187 92.7115 27.3101C93.1323 27.1687 93.2936 27.1509 93.3867 27.1509C93.8357 27.1509 94.1929 27.5295 94.4474 28.2763C94.67 28.9308 94.7832 29.7877 94.7832 30.8231C94.7832 31.3594 94.7077 31.7544 94.5516 32.0311C94.3727 32.3494 94.079 32.5175 93.7018 32.5175C93.2447 32.5175 92.8084 32.1456 92.3683 31.3802C92.3365 31.3252 92.3136 31.285 92.298 31.262C91.8202 30.4445 91.233 29.8457 90.5451 29.4716C89.8536 29.0952 88.983 28.9041 87.9587 28.9041C86.8492 28.9041 85.8019 29.1823 84.8463 29.7319C83.8885 30.2831 83.0786 31.0723 82.4411 32.0757C81.8279 33.0181 81.3546 34.0989 81.0314 35.2912C80.7067 36.4888 80.5425 37.7577 80.5425 39.0646C80.5425 41.1889 81.0558 42.902 82.0691 44.156C83.0823 45.4109 84.3952 46.0215 86.083 46.0215C87.4091 46.0215 88.5274 45.5671 89.4061 44.6715C90.2855 43.7745 90.7315 42.6201 90.7315 41.241C90.7315 41.0134 90.6864 40.8371 90.5962 40.7189C90.5044 40.5984 90.3439 40.5009 90.1198 40.4303C90.0126 40.3975 89.8654 40.3596 89.6812 40.3172C89.0563 40.1826 88.7382 39.9207 88.7382 39.5399C88.7382 39.0683 89.1236 38.7299 89.8839 38.5335C90.5333 38.3662 91.5214 38.2814 92.8224 38.2814C93.8771 38.2814 94.616 38.3401 95.0797 38.4614C95.7876 38.6466 95.9362 39.0215 95.9362 39.3026C95.9362 39.9631 95.093 40.2257 94.8164 40.312C94.6759 40.3618 94.5605 40.402 94.4806 40.4288C94.1108 40.5389 93.852 40.8356 93.6796 41.3414L93.6671 41.3786C93.6523 41.4314 93.6205 41.5318 93.5754 41.6687C93.0465 43.3006 92.5451 44.4335 92.0436 45.1312C91.392 46.0691 90.5229 46.7921 89.4653 47.2756C88.4157 47.7554 87.185 47.9986 85.8071 47.9986L85.8078 48.0001Z"></path>
<path fill="#276EF1" d="M103.599 47.8415C101.627 47.8415 99.9517 47.1461 98.6203 45.7752C97.2905 44.4066 96.6167 42.6899 96.6167 40.6741C96.6167 38.5185 97.3238 36.6962 98.7187 35.2569C100.116 33.8161 101.881 33.085 103.966 33.085C106.05 33.085 107.616 33.7581 108.905 35.0851C110.191 36.4106 110.843 38.1176 110.843 40.1594C110.843 42.3403 110.144 44.1842 108.763 45.6406C107.379 47.1007 105.642 47.8408 103.599 47.8408V47.8415ZM103.349 34.9051C102.219 34.9051 101.321 35.3462 100.603 36.2536C99.8799 37.167 99.5138 38.3928 99.5138 39.8968C99.5138 41.6939 99.942 43.1957 100.787 44.3597C101.623 45.5141 102.629 46.075 103.861 46.075C105.094 46.075 106.087 45.6339 106.805 44.7264C107.528 43.813 107.894 42.5158 107.894 40.872C107.894 39.2281 107.449 37.7137 106.573 36.5809C105.701 35.4533 104.647 34.9051 103.349 34.9051V34.9051Z"></path>
<path fill="#276EF1" d="M118.721 47.8415C116.749 47.8415 115.074 47.1461 113.743 45.7752C112.413 44.4066 111.739 42.6899 111.739 40.6741C111.739 38.5185 112.446 36.6962 113.841 35.2569C115.238 33.8161 117.004 33.085 119.088 33.085C121.172 33.085 122.739 33.7581 124.027 35.0851C125.313 36.4106 125.966 38.1176 125.966 40.1594C125.966 42.3403 125.266 44.1842 123.885 45.6406C122.501 47.1007 120.764 47.8408 118.721 47.8408V47.8415ZM118.472 34.9051C117.341 34.9051 116.443 35.3462 115.725 36.2536C115.002 37.167 114.636 38.3928 114.636 39.8968C114.636 41.6939 115.064 43.1957 115.909 44.3597C116.746 45.5141 117.751 46.075 118.984 46.075C120.216 46.075 121.209 45.6339 121.927 44.7264C122.65 43.813 123.016 42.5158 123.016 40.872C123.016 39.2281 122.572 37.7137 121.696 36.5809C120.824 35.4533 119.769 34.9051 118.472 34.9051V34.9051Z"></path>
<path fill="#276EF1" d="M138.519 47.8944C138.183 47.8944 137.937 47.7872 137.788 47.576C137.655 47.3886 137.594 47.094 137.594 46.6485C137.594 46.6485 137.594 46.1858 137.594 46.1732C137.525 46.2111 137.426 46.2736 137.29 46.377C137.172 46.4685 137.084 46.5332 137.028 46.5704C136.446 46.9847 135.86 47.2859 135.293 47.4607C134.728 47.6348 134.075 47.7233 133.352 47.7233C131.533 47.7233 130.023 47.068 128.865 45.7745C127.714 44.4899 127.131 42.7918 127.131 40.7277C127.131 38.6636 127.787 36.7557 129.082 35.3179C130.383 33.8719 132.019 33.1385 133.943 33.1385C135.153 33.1385 136.322 33.442 137.415 34.0415C137.457 34.0653 137.49 34.0832 137.518 34.0973C137.542 34.0192 137.568 33.8786 137.568 33.6324V31.4434C137.568 30.7241 137.53 30.2153 137.453 29.9319C137.414 29.7861 137.34 29.6046 137.218 29.5645C137.172 29.5511 137.06 29.5265 136.808 29.4968C135.93 29.4068 135.798 28.9345 135.798 28.6615C135.798 28.3885 135.914 28.1601 136.133 27.9697C136.323 27.8046 136.615 27.6544 137.027 27.5101C137.528 27.3241 138.007 27.1746 138.448 27.0675C138.906 26.9559 139.251 26.9016 139.502 26.9016C139.84 26.9016 140.084 27.0102 140.229 27.2244C140.354 27.4111 140.413 27.7042 140.413 28.1475C140.413 28.5127 140.37 29.7735 140.281 32.0027C140.195 34.1866 140.15 36.2261 140.15 38.0648C140.15 40.6332 140.176 42.4474 140.229 43.4575C140.298 44.8083 140.423 45.0991 140.46 45.1564C140.46 45.1564 140.577 45.2367 141.072 45.3074C141.878 45.4219 141.998 45.8749 141.998 46.1352C141.998 46.5681 141.597 46.9557 140.734 47.3566C139.964 47.7144 139.218 47.8958 138.517 47.8958L138.519 47.8944ZM134.296 35.0107C133.044 35.0107 132.058 35.5001 131.283 36.508C130.502 37.5226 130.106 38.889 130.106 40.5692C130.106 42.1089 130.471 43.3601 131.19 44.2868C131.903 45.2062 132.812 45.6532 133.968 45.6532C134.5 45.6532 135.05 45.5439 135.602 45.3289C136.153 45.114 136.635 44.8164 137.038 44.446C137.238 44.2749 137.374 44.0957 137.448 43.906C137.502 43.7684 137.567 43.4805 137.567 42.8914V38.2761C137.567 37.2042 137.289 36.3838 136.742 35.8371C136.194 35.2896 135.371 35.0122 134.295 35.0122L134.296 35.0107Z"></path>
<path fill="#276EF1" d="M120.078 0C120.492 0 120.837 0.180004 121.103 0.534804C121.353 0.865803 121.478 1.28829 121.478 1.78962C121.478 2.39063 121.285 3.04667 120.901 3.73917C120.461 4.5358 120.154 4.86084 119.841 4.86084C119.665 4.86084 119.505 4.82291 119.365 4.74853C119.123 4.6191 119.072 4.45174 119.072 4.33422C119.072 4.24645 119.072 4.19736 119.469 3.57999C119.725 3.17982 119.78 2.94328 119.78 2.81535C119.78 2.78559 119.775 2.77369 119.774 2.77221C119.774 2.77221 119.74 2.74245 119.623 2.69708C119.336 2.5803 119.12 2.41443 118.977 2.20244C118.833 1.99045 118.76 1.7197 118.76 1.40061C118.76 1.00267 118.883 0.667948 119.124 0.40538C119.371 0.136862 119.691 0.000743817 120.077 0.000743817L120.078 0Z"></path>
<path fill="#276EF1" d="M130.531 15.5518C130.352 15.5518 130.197 15.473 130.082 15.3227C130.004 15.2201 129.956 15.0959 129.939 14.9538H123.818C123.421 14.9538 123.132 14.9144 122.938 14.834C122.675 14.7254 122.531 14.5201 122.531 14.2568C122.531 14.0515 122.632 13.7414 123.837 12.642L124.957 11.591C126.701 9.90624 127.877 8.61126 128.448 7.7462C129 6.9094 129.281 6.11649 129.281 5.38904C129.281 4.78804 129.118 4.33356 128.781 4.00033C128.443 3.66562 127.977 3.50346 127.359 3.50346C126.96 3.50346 126.571 3.59049 126.202 3.76306C125.828 3.93785 125.463 4.20935 125.116 4.5701C124.994 4.69283 124.838 4.87134 124.649 5.10342C124.265 5.56681 123.98 5.77285 123.724 5.77285C123.557 5.77285 123.404 5.71409 123.283 5.60252C123.155 5.48499 123.087 5.32879 123.087 5.15176C123.087 4.89663 123.176 4.62291 123.361 4.31497C123.53 4.03381 123.785 3.72363 124.121 3.39264C124.586 2.91139 125.133 2.53427 125.739 2.27765C126.346 2.02104 126.995 1.89087 127.67 1.89087C128.841 1.89087 129.799 2.21889 130.517 2.86676C131.244 3.52132 131.612 4.39605 131.612 5.46491C131.612 6.35005 131.334 7.2285 130.785 8.07645C130.252 8.9006 129.244 9.96277 127.79 11.2332C126.922 11.9748 126.334 12.4955 126.041 12.7841C125.975 12.8488 125.921 12.9046 125.876 12.9522H129.427C129.781 12.9522 130.048 12.9157 130.222 12.8443C130.378 12.7803 130.5 12.674 130.596 12.5193C130.665 12.404 130.756 12.2292 130.866 12.0031C131.179 11.3716 131.457 11.0919 131.768 11.0919C132.041 11.0919 132.193 11.2161 132.274 11.321C132.375 11.4526 132.424 11.6312 132.424 11.8655C132.424 12.1109 132.351 12.4553 132.203 12.9172C132.062 13.3568 131.86 13.8537 131.604 14.3937C131.328 15.0036 131.185 15.1955 131.101 15.287C130.941 15.4618 130.744 15.5548 130.531 15.5548V15.5518Z"></path>
<path fill="#276EF1" d="M136.331 16.8051C135.368 16.8051 134.539 16.6883 133.869 16.4585C133.585 16.3611 132.72 16.0635 132.72 15.4432C132.72 15.2431 132.803 15.075 132.96 14.9567C133.095 14.8548 133.267 14.8028 133.47 14.8028C133.561 14.8028 133.755 14.831 134.547 15.0341C135.102 15.1762 135.619 15.2491 136.085 15.2491C137.204 15.2491 138.093 14.9768 138.726 14.439C139.354 13.9057 139.659 13.1969 139.659 12.2716C139.659 11.408 139.414 10.7705 138.91 10.3235C138.402 9.87348 137.646 9.64588 136.661 9.64588C136.468 9.64588 136.241 9.65852 135.982 9.68232C135.612 9.71803 135.508 9.72175 135.462 9.72175C135.184 9.72175 135.062 9.57447 135.014 9.4867C134.955 9.37885 134.929 9.22488 134.929 8.98611C134.929 8.61123 135.184 8.36502 135.609 8.32783C135.755 8.31519 135.874 8.30329 135.965 8.29139C136.846 8.1389 137.516 7.83989 137.949 7.40476C138.376 6.97557 138.583 6.4125 138.583 5.68282C138.583 5.05727 138.417 4.5723 138.073 4.19965C137.736 3.83295 137.305 3.65517 136.755 3.65517C136.5 3.65517 136.219 3.70203 135.919 3.79501C135.61 3.89022 135.278 4.03601 134.931 4.2294C134.827 4.28444 134.691 4.36701 134.522 4.47635C134.176 4.70321 133.942 4.80437 133.763 4.80437C133.584 4.80437 133.42 4.73445 133.301 4.6028C133.187 4.47784 133.126 4.3194 133.126 4.14461C133.126 3.95716 133.206 3.77121 133.363 3.59121C133.491 3.44393 133.753 3.23045 134.164 2.93665C134.623 2.60044 135.122 2.34159 135.643 2.16903C136.165 1.99646 136.711 1.90869 137.266 1.90869C138.351 1.90869 139.251 2.23671 139.941 2.88309C140.637 3.53468 140.99 4.37742 140.99 5.38752C140.99 5.92233 140.865 6.43705 140.62 6.91607C140.377 7.38988 140.015 7.83022 139.542 8.22519C139.505 8.25494 139.463 8.28692 139.415 8.31965C139.574 8.36651 139.724 8.42081 139.864 8.48106C140.529 8.76073 141.058 9.21744 141.436 9.83704C141.811 10.4499 142 11.17 142 11.977C142 13.4022 141.465 14.5789 140.408 15.4737C139.365 16.3566 137.993 16.8051 136.332 16.8051H136.331Z"></path>
</g>
<defs>
<clipPath id="clip0_659_1281">
<rect fill="white" height="48" width="142"></rect>
</clipPath>
</defs>
</svg>
